<svg xmlns="http://www.w3.org/2000/svg" xmlns:xlink="http://www.w3.org/1999/xlink" width="300" zoomAndPan="magnify" viewBox="0 0 224.87999 30.000001" height="40" preserveAspectRatio="xMidYMid meet" version="1.0"><defs><g/></defs><g fill="#e7e7e7" fill-opacity="1"><g transform="translate(19.044011, 20.752617)"><g><path d="M 4.90625 0 L 4.90625 -0.0820312 L 3.449219 -0.8125 L 2.269531 -19.367188 L 13.484375 0 L 13.890625 0 L 13.890625 -19.46875 L 15.351562 -20.199219 L 15.351562 -20.277344 L 10.828125 -20.277344 L 10.828125 -20.199219 L 12.289062 -19.46875 L 13.28125 -3.367188 L 3.589844 -20.277344 L 0.40625 -20.277344 L 0.40625 -20.199219 L 1.867188 -19.46875 L 1.867188 -0.8125 L 0.40625 -0.0820312 L 0.40625 0 Z M 4.90625 0 "/></g></g></g><g fill="#e7e7e7" fill-opacity="1"><g transform="translate(34.799358, 20.752617)"><g><path d="M 0.40625 0 L 4.949219 0 L 4.949219 -0.0820312 L 3.488281 -0.8125 L 3.488281 -13.484375 L 3.386719 -13.484375 L 0.488281 -11.882812 L 0.488281 -11.722656 L 1.867188 -11.722656 L 1.867188 -0.8125 L 0.40625 -0.0820312 Z M 1.5625 -16.324219 C 1.5625 -15.695312 2.046875 -15.210938 2.675781 -15.210938 C 3.304688 -15.210938 3.792969 -15.695312 3.792969 -16.324219 C 3.792969 -16.953125 3.304688 -17.441406 2.675781 -17.441406 C 2.046875 -17.441406 1.5625 -16.953125 1.5625 -16.324219 Z M 1.5625 -16.324219 "/></g></g></g><g fill="#e7e7e7" fill-opacity="1"><g transform="translate(40.152524, 20.752617)"><g><path d="M 4.949219 0 L 4.949219 -0.0820312 L 3.488281 -0.8125 L 3.488281 -9.671875 C 4.726562 -11.597656 6.835938 -13.078125 8.820312 -13.078125 C 9.773438 -13.078125 10.566406 -12.511719 10.566406 -11.050781 C 10.566406 -8.394531 7.585938 -6.183594 5.070312 -6.183594 C 4.828125 -6.183594 4.5625 -6.226562 4.257812 -6.285156 C 4.257812 -4.542969 6.894531 -1.015625 9.144531 0 L 12.226562 0 L 12.226562 -0.121094 C 9.53125 -1.257812 6.183594 -3.386719 4.5625 -5.820312 C 7.136719 -5.332031 12.207031 -7.238281 12.207031 -11.113281 C 12.207031 -12.550781 11.234375 -13.484375 9.347656 -13.484375 C 6.53125 -13.484375 4.726562 -12.027344 3.488281 -10.402344 L 3.488281 -20.277344 L 0.40625 -20.277344 L 0.40625 -20.199219 L 1.867188 -19.46875 L 1.867188 -0.8125 L 0.40625 -0.0820312 L 0.40625 0 Z M 4.949219 0 "/></g></g></g><g fill="#e7e7e7" fill-opacity="1"><g transform="translate(53.190736, 20.752617)"><g><path d="M 6.894531 0.40625 C 10.140625 0.40625 12.980469 -1.925781 12.980469 -6.550781 C 12.980469 -11.152344 10.140625 -13.484375 6.894531 -13.484375 C 3.648438 -13.484375 0.8125 -11.152344 0.8125 -6.550781 C 0.8125 -1.925781 3.648438 0.40625 6.894531 0.40625 Z M 2.496094 -6.570312 C 2.496094 -11.195312 4.644531 -13.078125 6.894531 -13.078125 C 9.144531 -13.078125 11.296875 -11.195312 11.296875 -6.570312 C 11.296875 -1.945312 9.144531 0 6.894531 0 C 4.644531 0 2.496094 -1.945312 2.496094 -6.570312 Z M 2.496094 -6.570312 "/></g></g></g><g fill="#e7e7e7" fill-opacity="1"><g transform="translate(66.979199, 20.752617)"><g><path d="M 0.40625 -20.277344 L 0.40625 -20.199219 L 1.867188 -19.46875 L 1.867188 -0.8125 L 0.40625 -0.0820312 L 0.40625 0 L 4.949219 0 L 4.949219 -0.0820312 L 3.488281 -0.8125 L 3.488281 -20.277344 Z M 0.40625 -20.277344 "/></g></g></g><g fill="#e7e7e7" fill-opacity="1"><g transform="translate(72.332365, 20.752617)"><g><path d="M 0.8125 -3.265625 C 0.8125 -0.992188 2.960938 0.40625 5.210938 0.40625 C 7.460938 0.40625 8.984375 -1.015625 9.695312 -2.597656 L 9.695312 0 L 12.652344 0 L 12.652344 -0.0820312 L 11.195312 -0.8125 L 11.195312 -9.226562 C 11.195312 -12.027344 9.226562 -13.484375 6.46875 -13.484375 C 4.726562 -13.484375 2.898438 -12.855469 1.824219 -12.328125 L 1.824219 -9.003906 L 1.90625 -9.003906 C 2.210938 -10.160156 2.777344 -11.132812 3.367188 -12.125 C 4.683594 -12.796875 5.679688 -13.078125 6.710938 -13.078125 C 9.066406 -13.078125 9.695312 -11.234375 9.695312 -9.46875 L 9.695312 -6.671875 L 4.929688 -6.671875 C 2.394531 -6.671875 0.8125 -5.453125 0.8125 -3.265625 Z M 5.453125 -6.265625 L 9.695312 -6.265625 L 9.695312 -3.609375 C 9.066406 -1.601562 7.726562 -0.285156 5.882812 -0.183594 C 3.730469 -0.0625 2.453125 -1.804688 2.453125 -3.425781 C 2.453125 -4.703125 3.347656 -6.265625 5.453125 -6.265625 Z M 5.453125 -6.265625 "/></g></g></g><g fill="#e7e7e7" fill-opacity="1"><g transform="translate(85.390856, 20.752617)"><g><path d="M 0 -13 L 1.460938 -12.269531 L 6.183594 0 L 6.976562 0 C 5.191406 4.054688 4.238281 6.105469 0.40625 6.105469 L 0.40625 7.5625 C 4.625 7.5625 5.535156 4.601562 7.421875 0 L 12.148438 -12.269531 L 13.605469 -13 L 13.605469 -13.078125 L 9.066406 -13.078125 L 9.066406 -13 L 10.523438 -12.269531 C 9.492188 -8.515625 8.515625 -4.886719 7.460938 -1.175781 L 3.203125 -12.269531 L 4.664062 -13 L 4.664062 -13.078125 L 0 -13.078125 Z M 0 -13 "/></g></g></g><g fill="#e7e7e7" fill-opacity="1"><g transform="translate(98.996825, 20.752617)"><g/></g></g><g fill="#e7e7e7" fill-opacity="1"><g transform="translate(106.093826, 20.752617)"><g><path d="M 1.867188 -19.46875 L 1.867188 -0.8125 L 0.40625 -0.0820312 L 0.40625 0 L 4.949219 0 L 4.949219 -0.0820312 L 3.488281 -0.8125 L 3.488281 -12.816406 L 13.179688 -12.816406 L 13.179688 -0.8125 L 11.722656 -0.0820312 L 11.722656 0 L 16.265625 0 L 16.265625 -0.0820312 L 14.804688 -0.8125 L 14.804688 -19.46875 L 16.265625 -20.199219 L 16.265625 -20.277344 L 11.722656 -20.277344 L 11.722656 -20.199219 L 13.179688 -19.46875 L 13.179688 -13.222656 L 3.488281 -13.222656 L 3.488281 -19.46875 L 4.949219 -20.199219 L 4.949219 -20.277344 L 0.40625 -20.277344 L 0.40625 -20.199219 Z M 1.867188 -19.46875 "/></g></g></g><g fill="#e7e7e7" fill-opacity="1"><g transform="translate(122.761648, 20.752617)"><g><path d="M 0.8125 -3.265625 C 0.8125 -0.992188 2.960938 0.40625 5.210938 0.40625 C 7.460938 0.40625 8.984375 -1.015625 9.695312 -2.597656 L 9.695312 0 L 12.652344 0 L 12.652344 -0.0820312 L 11.195312 -0.8125 L 11.195312 -9.226562 C 11.195312 -12.027344 9.226562 -13.484375 6.46875 -13.484375 C 4.726562 -13.484375 2.898438 -12.855469 1.824219 -12.328125 L 1.824219 -9.003906 L 1.90625 -9.003906 C 2.210938 -10.160156 2.777344 -11.132812 3.367188 -12.125 C 4.683594 -12.796875 5.679688 -13.078125 6.710938 -13.078125 C 9.066406 -13.078125 9.695312 -11.234375 9.695312 -9.46875 L 9.695312 -6.671875 L 4.929688 -6.671875 C 2.394531 -6.671875 0.8125 -5.453125 0.8125 -3.265625 Z M 5.453125 -6.265625 L 9.695312 -6.265625 L 9.695312 -3.609375 C 9.066406 -1.601562 7.726562 -0.285156 5.882812 -0.183594 C 3.730469 -0.0625 2.453125 -1.804688 2.453125 -3.425781 C 2.453125 -4.703125 3.347656 -6.265625 5.453125 -6.265625 Z M 5.453125 -6.265625 "/></g></g></g><g fill="#e7e7e7" fill-opacity="1"><g transform="translate(135.820139, 20.752617)"><g><path d="M 0.8125 -6.570312 C 0.8125 -3.101562 2.878906 0 7.035156 0 L 12.855469 0 L 12.855469 -0.0820312 L 11.398438 -0.8125 L 11.398438 -20.277344 L 8.3125 -20.277344 L 8.3125 -20.199219 L 9.773438 -19.46875 L 9.773438 -12.167969 C 8.902344 -13.078125 7.910156 -13.484375 6.632812 -13.484375 C 2.980469 -13.484375 0.8125 -10.078125 0.8125 -6.570312 Z M 6.652344 -13.078125 C 8.171875 -13.078125 9.773438 -11.945312 9.773438 -10.320312 L 9.773438 -0.8125 C 9.226562 -0.488281 8.171875 -0.40625 7.117188 -0.40625 C 3.933594 -0.40625 2.472656 -3.246094 2.472656 -6.570312 C 2.472656 -9.753906 4.117188 -13.078125 6.652344 -13.078125 Z M 6.652344 -13.078125 "/></g></g></g><g fill="#e7e7e7" fill-opacity="1"><g transform="translate(149.081401, 20.752617)"><g><path d="M 10.648438 0 L 10.648438 -3.832031 L 10.566406 -3.832031 L 9.492188 -0.40625 L 2.617188 -0.40625 L 10.910156 -13.078125 L 1.117188 -13.078125 L 1.117188 -9.246094 L 1.195312 -9.246094 L 2.269531 -12.675781 L 8.699219 -12.675781 L 0.40625 0 Z M 10.648438 0 "/></g></g></g><g fill="#e7e7e7" fill-opacity="1"><g transform="translate(160.396056, 20.752617)"><g><path d="M 0.40625 -20.277344 L 0.40625 -20.199219 L 1.867188 -19.46875 L 1.867188 -0.8125 L 0.40625 -0.0820312 L 0.40625 0 L 4.949219 0 L 4.949219 -0.0820312 L 3.488281 -0.8125 L 3.488281 -8.089844 C 3.488281 -9.042969 4.300781 -12.753906 7.808594 -12.753906 C 10.242188 -12.753906 10.585938 -10.871094 10.585938 -9.46875 L 10.585938 -0.8125 L 9.125 -0.0820312 L 9.125 0 L 13.667969 0 L 13.667969 -0.0820312 L 12.207031 -0.8125 L 12.207031 -9.46875 C 12.207031 -13.058594 9.570312 -13.484375 8.679688 -13.484375 C 4.703125 -13.484375 3.648438 -10.300781 3.488281 -9.753906 L 3.488281 -20.277344 Z M 0.40625 -20.277344 "/></g></g></g><g fill="#e7e7e7" fill-opacity="1"><g transform="translate(174.468401, 20.752617)"><g><path d="M 0.40625 0 L 4.949219 0 L 4.949219 -0.0820312 L 3.488281 -0.8125 L 3.488281 -13.484375 L 3.386719 -13.484375 L 0.488281 -11.882812 L 0.488281 -11.722656 L 1.867188 -11.722656 L 1.867188 -0.8125 L 0.40625 -0.0820312 Z M 1.5625 -16.324219 C 1.5625 -15.695312 2.046875 -15.210938 2.675781 -15.210938 C 3.304688 -15.210938 3.792969 -15.695312 3.792969 -16.324219 C 3.792969 -16.953125 3.304688 -17.441406 2.675781 -17.441406 C 2.046875 -17.441406 1.5625 -16.953125 1.5625 -16.324219 Z M 1.5625 -16.324219 "/></g></g></g><g fill="#e7e7e7" fill-opacity="1"><g transform="translate(179.821567, 20.752617)"><g><path d="M 0.8125 -6.46875 C 0.8125 -2.695312 3.246094 0.40625 6.570312 0.40625 C 8.617188 0.40625 10.464844 -0.140625 11.375 -1.765625 L 11.375 -4.441406 L 11.296875 -4.441406 C 10.648438 -2.554688 8.902344 0 6.671875 0 C 3.691406 0 2.496094 -3.285156 2.496094 -6.507812 L 8.375 -6.507812 C 10.058594 -6.507812 11.558594 -6.914062 11.558594 -8.800781 C 11.558594 -11.640625 9.613281 -13.484375 6.957031 -13.484375 C 3.710938 -13.484375 0.8125 -11.132812 0.8125 -6.46875 Z M 2.496094 -6.914062 C 2.597656 -11.273438 4.5625 -13.078125 6.734375 -13.078125 C 8.496094 -13.078125 10.019531 -11.597656 10.019531 -9.632812 C 10.019531 -7.867188 9.265625 -6.914062 7.5625 -6.914062 Z M 2.496094 -6.914062 "/></g></g></g><g fill="#e7e7e7" fill-opacity="1"><g transform="translate(192.190633, 20.752617)"><g><path d="M 0 -13 L 1.460938 -12.269531 L 6.308594 0.40625 L 7.441406 0 L 12.167969 -12.269531 L 13.628906 -13 L 13.628906 -13.078125 L 9.085938 -13.078125 L 9.085938 -13 L 10.546875 -12.269531 C 9.511719 -8.515625 8.539062 -4.886719 7.484375 -1.175781 L 3.222656 -12.269531 L 4.683594 -13 L 4.683594 -13.078125 L 0 -13.078125 Z M 0 -13 "/></g></g></g></svg>